<?xml version="1.0" encoding="utf-8"?>
<!-- Generator: Adobe Illustrator 19.0.0, SVG Export Plug-In . SVG Version: 6.00 Build 0)  -->
<svg version="1.1" id="图层_1" xmlns="http://www.w3.org/2000/svg" xmlns:xlink="http://www.w3.org/1999/xlink" x="0px" y="0px"
	 viewBox="-227 230 344 141" style="enable-background:new -227 230 344 141;" xml:space="preserve">
<style type="text/css">
	.st0{fill:#FFFFFF;}
</style>
<title>blue_full</title>
<desc>Created with Sketch.</desc>
<g id="Group">
	<path id="Combined-Shape" class="st0" d="M-227,242c0-6.6,5.4-12,12-12h117c6.6,0,12,5.4,12,12v117c0,6.6-5.4,12-12,12h-117
		c-6.6,0-12-5.4-12-12V242z M-167.4,346.4c0-1.5,0.6-2.7,1.9-3.6s3-1.3,5.3-1.3c1.4,0,2.8,0.1,4,0.4s2.3,0.5,3.3,0.9v1.8
		c0,1-0.2,1.9-0.6,2.7s-1,1.5-1.8,2.1s-1.6,1.1-2.7,1.4s-2.1,0.5-3.3,0.5c-1.7,0-3.2-0.4-4.4-1.2s-1.8-2-1.8-3.5v-0.2H-167.4z
		 M-171.2,354.2c1,0.8,2.2,1.4,3.6,1.8s2.8,0.6,4.3,0.6c2.4,0,4.5-0.4,6.1-1.3s3-2,4.1-3.3v3.9h7.2v-18.8c0-4.2-1.1-7.5-3.4-9.9
		s-5.8-3.5-10.5-3.5c-2.6,0-4.8,0.2-6.7,0.7s-3.7,1.1-5.4,1.9l2,5.8c1.4-0.6,2.8-1.1,4.2-1.5s3-0.5,4.8-0.5c2.5,0,4.5,0.6,5.8,1.8
		s2,2.9,2,5.1v0.6c-1.2-0.4-2.5-0.7-3.9-0.9s-3-0.4-4.9-0.4c-1.8,0-3.5,0.2-5.1,0.6s-2.9,1.1-4.1,1.9s-2.1,1.9-2.7,3.3s-1,2.8-1,4.6
		v0.1c0,1.6,0.3,3,0.9,4.2S-172.3,353.4-171.2,354.2L-171.2,354.2z M-129.5,356v-43.8h-7.3V356H-129.5z M-118.6,330.6v16.7
		c0,1.8,0.2,3.2,0.7,4.4s1.1,2.1,1.9,2.9s1.8,1.3,2.9,1.6s2.3,0.5,3.7,0.5c1.4,0,2.6-0.1,3.6-0.4s2-0.7,2.9-1.2V349
		c-0.7,0.4-1.4,0.6-2.2,0.8s-1.5,0.3-2.3,0.3c-1.3,0-2.2-0.3-2.9-0.9s-1-1.6-1-3v-15.5h8.5v-6.2h-8.5v-8.7h-7.3v8.7h-4v6.2
		L-118.6,330.6z"/>
	<path id="school" class="st0" d="M-60.8,357.6c1.6,0,3.2-0.2,4.6-0.6s2.6-1.1,3.7-1.9c1-0.8,1.8-1.8,2.5-3s0.9-2.6,0.9-4.2v-0.1
		c0-1.5-0.3-2.7-0.9-3.7s-1.4-1.9-2.4-2.6s-2.2-1.3-3.4-1.8s-2.5-0.9-3.8-1.3c-1.1-0.3-2.1-0.7-3.1-1s-1.9-0.7-2.7-1.1
		s-1.4-0.9-1.8-1.4s-0.7-1.2-0.7-2v-0.2c0-1.3,0.6-2.4,1.7-3.3s2.7-1.4,4.6-1.4c1.6,0,3.2,0.3,4.9,0.8s3.3,1.3,4.8,2.3l2.2-3.7
		c-1.7-1.1-3.6-1.9-5.6-2.6s-4.1-1-6.1-1c-1.6,0-3.1,0.2-4.4,0.6s-2.5,1.1-3.5,1.9s-1.8,1.8-2.3,3s-0.8,2.4-0.8,3.8v0.1
		c0,1.5,0.3,2.8,1,3.8s1.5,1.8,2.5,2.5s2.2,1.2,3.5,1.7s2.6,0.8,3.8,1.2c1.1,0.3,2.1,0.6,3.1,0.9s1.8,0.7,2.6,1.2s1.4,1,1.8,1.6
		s0.6,1.3,0.6,2.1v0.1c0,1.6-0.6,2.9-1.9,3.8s-2.9,1.4-4.9,1.4c-1.9,0-3.9-0.4-5.8-1.1s-3.8-1.8-5.5-3.1l-2.5,3.5
		c1.8,1.5,4,2.6,6.4,3.5S-63.1,357.6-60.8,357.6L-60.8,357.6z M-38.5,352.8c1.5,1.5,3.2,2.8,5.3,3.7s4.2,1.4,6.6,1.4
		c3.1,0,5.7-0.6,7.7-1.8s3.9-2.7,5.5-4.5l-3.1-2.9c-1.3,1.4-2.7,2.5-4.4,3.4s-3.5,1.4-5.6,1.4c-1.7,0-3.3-0.3-4.8-1
		c-1.5-0.7-2.7-1.6-3.8-2.7s-1.9-2.5-2.5-4s-0.9-3.2-0.9-5v-0.1c0-1.8,0.3-3.4,0.9-5s1.4-2.9,2.5-4s2.3-2,3.7-2.7s3-1,4.6-1
		c2.2,0,4.1,0.5,5.7,1.4s3,2.1,4.2,3.5l3.2-3.4c-0.8-0.8-1.6-1.6-2.5-2.3c-0.9-0.7-1.8-1.3-2.9-1.8s-2.2-0.9-3.5-1.2
		s-2.7-0.4-4.2-0.4c-2.4,0-4.6,0.5-6.6,1.4s-3.8,2.1-5.3,3.7s-2.7,3.4-3.5,5.4s-1.3,4.2-1.3,6.6v0.1c0,2.2,0.4,4.4,1.3,6.5
		S-40.1,351.2-38.5,352.8L-38.5,352.8z M-1.4,357v-18.6c0-1.5,0.2-2.9,0.7-4.2s1.2-2.3,2.1-3.2s1.9-1.6,3.1-2.1s2.5-0.7,3.9-0.7
		c2.9,0,5.2,0.9,6.7,2.7s2.3,4.2,2.3,7.2v19h4.9v-20.2c0-1.9-0.3-3.7-0.8-5.3s-1.4-3-2.5-4.2c-1.1-1.1-2.4-2-3.9-2.6
		s-3.3-0.9-5.3-0.9c-2.8,0-5.1,0.6-6.8,1.8s-3.2,2.7-4.2,4.5V311h-4.9v46H-1.4z M34.5,340.7v0.1c0,1.8,0.3,3.4,0.9,5s1.4,2.9,2.5,4
		s2.3,2.1,3.8,2.7s3.1,1,4.8,1c1.8,0,3.4-0.3,4.9-1s2.7-1.6,3.8-2.7s1.9-2.5,2.5-4s0.9-3.1,0.9-4.9v-0.1c0-1.8-0.3-3.4-0.9-5
		s-1.5-2.9-2.6-4.1c-1.1-1.1-2.4-2.1-3.8-2.7s-3.1-1-4.8-1c-1.8,0-3.4,0.3-4.9,1s-2.7,1.6-3.8,2.7s-1.8,2.5-2.4,4
		S34.5,338.9,34.5,340.7z M46.4,357.8c-2.4,0-4.7-0.5-6.7-1.4s-3.8-2.1-5.4-3.7l0,0c-1.5-1.5-2.7-3.3-3.5-5.4s-1.3-4.2-1.3-6.5v-0.1
		c0-2.3,0.4-4.5,1.3-6.6s2-3.9,3.5-5.4s3.3-2.8,5.4-3.7s4.4-1.4,6.9-1.4c2.4,0,4.7,0.5,6.7,1.4s3.8,2.1,5.4,3.6
		c1.5,1.5,2.7,3.3,3.5,5.4s1.3,4.2,1.3,6.5v0.1c0,2.3-0.4,4.5-1.3,6.6s-2,3.9-3.5,5.4s-3.3,2.8-5.4,3.7S48.8,357.8,46.4,357.8z
		 M74.2,340.7v0.1c0,1.8,0.3,3.4,0.9,5s1.4,2.9,2.5,4s2.3,2.1,3.8,2.7s3.1,1,4.8,1c1.8,0,3.4-0.3,4.9-1s2.7-1.6,3.8-2.7
		s1.9-2.5,2.5-4s0.9-3.1,0.9-4.9v-0.1c0-1.8-0.3-3.4-0.9-5s-1.5-2.9-2.6-4.1c-1.1-1.1-2.4-2.1-3.8-2.7s-3.1-1-4.8-1
		c-1.8,0-3.4,0.3-4.9,1s-2.7,1.6-3.8,2.7s-1.8,2.5-2.4,4S74.2,338.9,74.2,340.7z M86.1,357.8c-2.4,0-4.7-0.5-6.7-1.4
		s-3.8-2.1-5.4-3.7l0,0c-1.5-1.5-2.7-3.3-3.5-5.4s-1.3-4.2-1.3-6.5v-0.1c0-2.3,0.4-4.5,1.3-6.6s2-3.9,3.5-5.4s3.3-2.8,5.4-3.7
		s4.4-1.4,6.9-1.4c2.4,0,4.7,0.5,6.7,1.4s3.8,2.1,5.4,3.6c1.5,1.5,2.7,3.3,3.5,5.4s1.3,4.2,1.3,6.5v0.1c0,2.3-0.4,4.5-1.3,6.6
		s-2,3.9-3.5,5.4s-3.3,2.8-5.4,3.7S88.5,357.8,86.1,357.8z M116.2,357v-46h-4.9v46H116.2z"/>
	<rect x="-141.1" y="318" class="st0" width="13.7" height="6.3"/>
	<rect x="-146.2" y="304.1" class="st0" width="42.7" height="5.5"/>
</g>
</svg>
